<?xml version="1.0" encoding="UTF-8"?>
<svg id="Layer_1" xmlns="http://www.w3.org/2000/svg" version="1.1" viewBox="0 0 68.3 94.87">
  <!-- Generator: Adobe Illustrator 29.4.0, SVG Export Plug-In . SVG Version: 2.1.0 Build 152)  -->
  <defs>
    <style>
      .st0 {
        stroke: #73bf44;
        stroke-miterlimit: 10;
      }
    </style>
  </defs>
  <path class="st0" d="M49.88,23.41c-3.37-1.95-7.7-.79-9.65,2.59l-3.39,5.88-21.88,37.89s-.04.08-.05.12c-.01.03-.02.05-.04.07-.03.09-.05.18-.07.27h0l-1.82,14.84c-.06.49.18.96.61,1.21.19.11.4.16.61.16.26,0,.52-.08.74-.25l11.93-9s.04-.04.06-.06c.04-.03.07-.07.11-.1.04-.05.08-.09.11-.14.02-.02.04-.04.05-.07l21.88-37.89,3.39-5.88c1.95-3.37.79-7.7-2.59-9.65h0ZM38.35,34.17l7.98,4.61-20.65,35.77-7.98-4.61s20.65-35.77,20.65-35.77ZM15.77,82.49l1.25-10.12,6.9,3.98-8.14,6.14h0ZM50.34,31.84l-2.78,4.81-7.98-4.61,2.78-4.81c1.27-2.2,4.09-2.96,6.29-1.69,1.06.61,1.82,1.61,2.14,2.8.32,1.19.16,2.43-.45,3.5Z"/>
</svg>